<svg xmlns="http://www.w3.org/2000/svg" xmlns:svg="http://www.w3.org/2000/svg" xmlns:xlink="http://www.w3.org/1999/xlink" id="svg2" width="251.408" height="218.594" version="1.1"><metadata id="metadata7"/><g id="layer2" transform="translate(-50.25,-765.90625)"><path style="fill:none;stroke:#e2e2e2;stroke-width:6;stroke-miterlimit:4;stroke-opacity:1" id="path3793" d="m 283.46457,875.19684 c 0,58.70743 -47.59178,106.29921 -106.29921,106.29921 -58.70743,0 -106.29921,-47.59178 -106.29921,-106.29921 0,-58.70743 47.59178,-106.29921 106.29921,-106.29921 58.70743,0 106.29921,47.59178 106.29921,106.29921 z"/><path style="fill:#e2e2e2;fill-opacity:1;stroke:none" id="rect3822" d="m 77.150875,913.00607 -5.995009,17.48346 0.02175,0.008 23.456328,-11.45948 0.0076,-0.0218 -17.490619,-6.00967 z"/><use id="use3827" width="744.094" height="1052.362" x="0" y="0" transform="matrix(-1,0,0,-1,356.00913,1752.994)" xlink:href="#rect3822"/><rect style="fill:#fff;fill-opacity:1;stroke:#000;stroke-width:2;stroke-miterlimit:4;stroke-opacity:1;stroke-dasharray:none" id="rect2985" width="35.433" height="35.433" x="51.265" y="857.309"/><rect id="use3795" width="35.433" height="35.433" x="100.055" y="771.749" style="fill:#000;fill-opacity:1;stroke:none"/><rect id="use3797" width="35.433" height="35.433" x="216.728" y="771.749" style="fill:#000;fill-opacity:1;stroke:none"/><rect id="use3799" width="35.433" height="35.433" x="266.225" y="858.724" style="fill:#000;fill-opacity:1;stroke:none"/><rect id="use3801" width="35.433" height="35.433" x="216.728" y="942.041" style="fill:#000;fill-opacity:1;stroke:none;stroke-width:2;stroke-miterlimit:4;stroke-opacity:1;stroke-dasharray:none"/><rect id="use3803" width="35.433" height="35.433" x="101.47" y="942.162" style="fill:#fff;fill-opacity:1;stroke:#000;stroke-width:2;stroke-miterlimit:4;stroke-opacity:1;stroke-dasharray:none"/><text xml:space="preserve" style="font-size:32px;font-style:normal;font-weight:700;line-height:125%;letter-spacing:0;word-spacing:0;fill:#fff;fill-opacity:1;stroke:none;font-family:Arial;-inkscape-font-specification:Arial Bold;font-stretch:normal;font-variant:normal" id="text3852" x="107.983" y="800.919"><tspan id="tspan3854" x="107.983" y="800.919">T</tspan></text><text xml:space="preserve" style="font-size:32px;font-style:normal;font-weight:700;line-height:125%;letter-spacing:0;word-spacing:0;fill:#000;fill-opacity:1;stroke:none;font-family:Arial;-inkscape-font-specification:Arial Bold;font-stretch:normal;font-variant:normal" id="text3856" x="107.686" y="971.332"><tspan id="tspan3858" x="107.686" y="971.332">H</tspan></text></g></svg>